<svg xmlns="http://www.w3.org/2000/svg" viewBox="0 0 51.27 47.17">
  <defs>
    <style>
      .cls-1 {
        fill: #f79f26;
      }
    </style>
  </defs>
  <g id="Layer_2" data-name="Layer 2">
    <g id="Layer_1-2" data-name="Layer 1">
      <g>
        <path class="cls-1" d="M15.09,41.39a13,13,0,1,1,13-13A13,13,0,0,1,15.09,41.39Zm0-21.15a8.12,8.12,0,1,0,8.12,8.12A8.12,8.12,0,0,0,15.09,20.24Z"/>
        <path class="cls-1" d="M36.46,41.39a13,13,0,1,1,13-13A13,13,0,0,1,36.46,41.39Zm0-21.15a8.12,8.12,0,1,0,8.12,8.12A8.12,8.12,0,0,0,36.46,20.24Z"/>
        <path class="cls-1" d="M25.19,20.87c-.91,0-1.82,0-2.74-.1C13.08,20.08,4.69,15.88,0,9.55L4,6.62c3.79,5.12,11,8.66,18.86,9.24a31.65,31.65,0,0,0,25-9.51l3.48,3.48A36.57,36.57,0,0,1,25.19,20.87Z"/>
        <polygon class="cls-1" points="25.67 37.29 22.28 41 25.75 47.17 29.23 40.91 25.67 37.29"/>
        <path class="cls-1" d="M15.37,24.26a3.71,3.71,0,0,0-1.85.51l1.57,2.45H11.71a4,4,0,0,0-.08.78,3.74,3.74,0,1,0,3.74-3.74Z"/>
        <path class="cls-1" d="M39.75,29.72a3.73,3.73,0,0,0,.48-1.85L37.32,28,39,25.08a4.3,4.3,0,0,0-.63-.47,3.74,3.74,0,1,0,1.37,5.11Z"/>
        <path class="cls-1" d="M16.19,9.13v4.74s8.87,3.67,16.9,0V9.13l-8,2.79Z"/>
        <polygon class="cls-1" points="9.77 5.25 24.64 10.91 39.6 5.25 24.68 0 9.77 5.25"/>
      </g>
    </g>
  </g>
</svg>
